PathFileType  4	(X/Y/Z) /Users/kristensteudel/Documents/NMBL_Research/BertecForceProcessing/anc_files/
DataRate	CameraRate	NumFrames	NumMarkers	Units	OrigDataRate	OrigDataStartFrame	OrigNumFrames
  200.0		  200.0		    9		     46		 mm	  200.0	      270	    718
Frame#	Time	r_knee			r_shank_antsup			r_ankle			r_calc			r_5meta			r_toe			L_knee			L_shank_antsup			L_ankle			L_calc			L_5meta			L_toe			r_sh2			r_sh3			r_sh4			L_sh2			L_sh3			r_thigh1			r_thigh2			r_thigh3			r_thigh4			r_thigh5			L_thigh1			L_thigh2			L_thigh3			L_thigh4			r.ASIS			r.PSIS			L.ASIS			L.PSIS			C7			R_Shoulder			L_Shoulder			Sternum			R_humerus			R_elbow_med			R_elbow_lat			R_forearm			R_wrist_radius			R_wrist_ulna			L_humerus			L_elbow_med			L_elbow_lat			L_forearm			L_wrist_radius			L_wrist_ulna			
		X1	Y1	Z1	X2	Y2	Z2	X3	Y3	Z3	X4	Y4	Z4	X5	Y5	Z5	X6	Y6	Z6	X7	Y7	Z7	X8	Y8	Z8	X9	Y9	Z9	X10	Y10	Z10	X11	Y11	Z11	X12	Y12	Z12	X13	Y13	Z13	X14	Y14	Z14	X15	Y15	Z15	X16	Y16	Z16	X17	Y17	Z17	X18	Y18	Z18	X19	Y19	Z19	X20	Y20	Z20	X21	Y21	Z21	X22	Y22	Z22	X23	Y23	Z23	X24	Y24	Z24	X25	Y25	Z25	X26	Y26	Z26	X27	Y27	Z27	X28	Y28	Z28	X29	Y29	Z29	X30	Y30	Z30	X31	Y31	Z31	X32	Y32	Z32	X33	Y33	Z33	X34	Y34	Z34	X35	Y35	Z35	X36	Y36	Z36	X37	Y37	Z37	X38	Y38	Z38	X39	Y39	Z39	X40	Y40	Z40	X41	Y41	Z41	X42	Y42	Z42	X43	Y43	Z43	X44	Y44	Z44	X45	Y45	Z45	X46	Y46	Z46	

270	1.34500	1001.147	494.531	-149.754	895.639	461.061	-156.121	596.902	587.603	-180.176	587.896	672.600	-237.046	486.316	501.721	-155.974	497.467	456.757	-219.997	952.073	489.140	-438.192	933.816	363.181	-428.105	759.364	104.638	-349.066	697.778	80.611	-297.370	888.988	40.616	-388.829	933.776	50.408	-325.040	780.384	493.662	-165.566	908.032	524.569	-119.666	802.989	568.735	-138.884	852.517	401.692	-445.500	804.942	294.153	-411.130	1021.970	722.378	-137.506	1053.419	612.680	-153.923	1028.633	569.916	-124.066	926.261	685.344	-88.748	961.473	575.949	-118.623	959.070	719.917	-478.395	989.979	590.101	-435.441	843.226	692.043	-485.344	881.128	563.447	-443.252	925.324	947.880	-172.950	715.286	1018.684	-215.470	887.644	973.798	-440.892	699.717	1030.825	-322.841	846.184	1500.380	-335.551	891.210	1479.751	-134.362	905.265	1435.736	-525.441	995.147	1379.325	-323.870	780.605	1292.735	-37.035	637.336	1217.944	-71.459	655.124	1257.526	10.018	786.063	1126.936	7.794	858.835	1042.323	-6.693	821.851	1018.302	22.822	809.217	1202.866	-600.887	680.475	1121.286	-559.094	720.281	1154.188	-640.592	862.505	1082.616	-600.000	954.419	1080.541	-520.053	934.787	1021.563	-562.517
271	1.35000	1021.858	505.668	-148.030	917.431	465.080	-157.424	611.392	576.229	-178.445	595.914	660.826	-234.147	507.462	482.508	-153.974	521.336	438.689	-218.784	938.544	484.793	-437.923	914.636	358.262	-427.539	729.180	106.935	-351.352	666.747	83.704	-300.045	857.672	40.391	-389.870	902.565	49.800	-326.169	800.874	491.735	-164.366	928.125	530.645	-119.983	820.044	567.938	-138.342	835.658	399.947	-446.092	779.921	296.617	-411.616	1029.199	734.574	-139.011	1066.857	626.881	-155.728	1045.489	583.253	-125.209	936.896	692.059	-88.864	977.811	584.230	-118.157	951.829	716.236	-476.729	979.392	585.119	-434.440	835.365	690.810	-485.156	870.161	561.426	-444.802	924.052	947.232	-172.738	714.153	1019.154	-215.412	887.271	973.362	-440.551	698.087	1032.258	-324.095	846.667	1500.511	-336.609	888.651	1479.339	-133.695	911.224	1432.338	-525.594	994.349	1378.912	-321.572	772.856	1294.476	-37.838	629.970	1220.424	-75.373	645.950	1260.655	5.840	774.751	1127.533	7.491	845.735	1041.303	-4.734	807.760	1018.257	24.125	817.963	1199.753	-600.389	688.759	1114.680	-561.772	731.150	1148.749	-641.942	874.554	1078.789	-597.544	964.702	1079.105	-516.179	946.986	1019.483	-558.596
272	1.35500	1041.359	517.479	-149.213	939.220	470.456	-159.228	625.712	563.900	-176.534	603.666	647.209	-231.692	529.493	462.354	-152.618	546.190	420.461	-217.602	922.243	478.895	-437.752	895.039	353.553	-426.947	699.820	109.355	-352.715	636.324	87.733	-301.080	826.208	40.098	-390.235	871.051	49.424	-326.674	821.182	490.840	-164.213	946.425	535.706	-121.842	836.592	567.586	-138.246	817.307	396.605	-447.591	758.235	295.557	-413.506	1035.239	746.889	-141.725	1078.999	642.034	-157.514	1060.958	597.372	-126.762	946.818	699.618	-89.227	993.650	595.103	-117.916	944.445	711.892	-474.796	967.654	579.733	-433.575	827.414	690.314	-485.525	857.635	559.372	-445.051	922.627	947.189	-171.685	712.795	1019.972	-215.367	887.407	972.997	-439.396	696.342	1034.030	-325.995	846.851	1500.948	-337.441	885.601	1479.668	-133.154	916.265	1432.841	-525.703	993.675	1379.196	-319.116	765.646	1297.047	-38.934	622.008	1223.990	-79.709	637.005	1264.578	1.749	763.529	1129.090	6.985	833.214	1041.537	-3.214	794.058	1019.227	24.836	826.561	1197.450	-599.622	698.137	1110.438	-563.572	741.839	1144.607	-642.639	885.984	1076.488	-594.592	974.568	1079.297	-511.840	958.947	1019.079	-554.245
273	1.36000	1059.611	530.459	-150.691	960.362	476.765	-160.562	640.122	550.443	-175.056	610.799	632.650	-229.914	552.585	441.373	-151.138	572.326	401.584	-216.662	904.173	472.618	-437.789	874.371	348.509	-426.292	670.330	112.572	-353.637	606.017	93.093	-301.933	794.505	40.032	-390.181	839.499	48.801	-326.709	841.335	490.440	-164.524	964.513	542.233	-123.536	852.855	567.975	-138.463	798.560	393.526	-448.384	742.846	288.694	-417.151	1040.448	759.854	-143.004	1089.980	657.701	-159.069	1074.907	611.901	-127.945	955.899	707.670	-89.797	1008.206	606.107	-118.202	937.002	706.925	-473.568	954.763	573.438	-433.710	819.280	689.642	-485.279	844.092	557.499	-445.399	921.467	947.790	-170.353	711.777	1020.938	-216.063	888.088	972.637	-437.266	694.769	1035.812	-328.066	846.590	1501.713	-338.295	882.501	1480.653	-132.624	921.484	1432.110	-524.154	992.942	1380.040	-316.527	758.545	1300.411	-40.092	615.375	1227.898	-83.681	628.257	1269.317	-2.314	752.523	1131.682	6.166	821.123	1042.908	-2.138	780.818	1021.266	24.795	835.066	1195.985	-598.415	707.010	1106.968	-564.778	751.638	1141.644	-643.122	896.997	1075.988	-591.311	983.505	1081.057	-506.974	970.534	1020.544	-549.674
274	1.36500	1076.321	543.801	-152.113	980.838	483.712	-161.918	654.750	536.117	-174.311	618.781	616.089	-228.509	576.867	420.453	-150.191	599.678	382.380	-215.045	884.787	466.583	-437.595	852.020	342.684	-425.506	640.531	116.806	-354.453	575.915	99.496	-302.786	762.654	40.021	-390.094	807.988	48.986	-326.829	861.237	490.474	-164.655	981.719	549.505	-126.045	868.545	568.848	-138.853	778.400	391.328	-448.647	728.578	280.866	-420.502	1045.050	772.789	-144.892	1100.055	673.725	-160.514	1087.673	626.999	-129.362	964.241	715.651	-90.759	1021.304	617.475	-119.332	929.430	701.116	-472.871	941.165	566.967	-433.751	810.603	689.336	-485.437	829.609	556.479	-445.056	920.779	949.199	-168.851	710.912	1022.146	-216.823	887.956	971.348	-435.501	693.370	1037.607	-330.282	846.019	1502.759	-339.026	878.635	1482.319	-132.192	925.972	1432.955	-522.712	992.231	1381.611	-313.849	751.300	1304.410	-41.079	608.750	1232.521	-87.632	620.025	1274.536	-6.384	741.899	1135.154	5.163	808.819	1045.209	-1.172	768.152	1024.253	24.412	843.341	1195.590	-596.741	715.617	1104.964	-565.342	761.351	1139.718	-643.115	907.123	1077.310	-587.899	992.490	1083.964	-502.213	981.342	1023.746	-544.810
275	1.37000	1092.171	558.298	-153.604	1000.336	491.261	-162.502	670.088	520.973	-173.710	627.367	598.244	-227.525	602.850	399.597	-148.316	628.206	363.953	-214.521	864.396	461.232	-437.395	828.927	340.265	-424.648	611.213	121.873	-355.114	545.992	107.297	-303.175	730.620	39.938	-390.016	776.521	48.830	-326.556	880.712	490.922	-163.212	997.801	557.572	-127.962	883.614	569.779	-139.149	758.391	391.129	-448.247	695.590	290.394	-417.581	1049.084	785.823	-145.886	1108.842	689.665	-161.750	1098.974	642.283	-130.692	971.110	725.720	-89.982	1033.366	629.494	-120.177	921.475	695.626	-472.362	926.907	560.551	-433.862	802.649	689.695	-484.780	815.398	555.444	-444.387	920.301	951.873	-167.860	710.332	1023.873	-218.181	884.384	967.572	-437.858	692.149	1039.417	-332.619	845.223	1503.885	-339.879	874.381	1484.678	-131.855	929.809	1434.818	-521.096	991.533	1383.874	-311.240	744.001	1308.886	-42.349	602.119	1238.289	-91.711	612.161	1280.408	-10.339	731.945	1139.358	3.925	797.798	1048.773	-1.118	756.209	1028.195	23.546	850.840	1196.443	-594.924	723.503	1104.396	-565.712	771.006	1138.764	-642.143	916.282	1080.321	-584.377	999.148	1089.702	-497.514	991.138	1028.525	-539.890
276	1.37500	1106.883	573.594	-155.767	1018.907	499.633	-163.715	686.437	505.351	-173.327	637.331	578.892	-227.279	629.668	378.894	-148.693	657.992	344.467	-215.448	843.574	457.270	-436.976	807.379	340.670	-424.652	582.114	127.701	-355.757	516.816	115.437	-303.457	698.824	40.155	-390.022	744.798	48.600	-326.834	899.483	491.198	-164.286	1012.267	565.981	-129.883	897.566	569.654	-140.644	737.599	393.832	-447.454	671.817	294.842	-417.751	1052.623	798.556	-146.827	1116.664	705.564	-162.919	1109.094	657.511	-132.051	977.765	735.105	-90.514	1044.026	641.613	-121.081	913.481	690.041	-471.467	911.501	554.684	-433.918	794.591	690.594	-484.339	799.704	556.229	-443.695	919.219	955.244	-167.040	710.009	1025.786	-219.699	885.649	966.907	-438.198	691.106	1041.245	-335.052	844.321	1505.400	-340.537	869.731	1487.618	-131.613	933.667	1437.232	-518.703	990.845	1386.604	-308.580	736.815	1313.833	-43.922	595.662	1244.542	-95.928	604.732	1286.724	-14.067	722.467	1144.321	2.494	787.393	1053.162	-1.292	745.006	1033.087	22.240	857.747	1198.252	-593.274	731.275	1104.245	-565.667	779.248	1139.109	-641.701	924.630	1084.702	-580.986	1005.687	1096.324	-492.926	1000.203	1034.823	-534.957
277	1.38000	1119.356	587.971	-156.926	1036.728	508.469	-164.948	703.647	488.988	-173.424	648.757	558.411	-227.360	657.368	358.119	-150.573	689.042	327.537	-213.503	822.191	455.377	-436.592	783.881	341.840	-424.669	553.764	134.279	-356.662	488.471	124.055	-304.577	667.219	40.344	-390.101	712.588	47.671	-327.152	917.820	491.359	-164.781	1025.050	574.791	-132.209	910.140	569.534	-141.718	716.225	397.583	-446.635	647.450	300.298	-417.958	1055.829	812.174	-145.446	1123.404	721.042	-163.738	1117.744	672.492	-133.295	983.383	744.282	-91.370	1053.522	653.904	-122.305	905.155	685.057	-470.283	897.524	549.770	-434.883	786.414	692.116	-484.410	783.598	558.180	-443.626	918.726	959.233	-165.847	709.876	1027.729	-221.147	887.348	966.381	-437.590	690.245	1043.096	-337.556	843.046	1507.670	-340.585	865.069	1491.021	-131.435	936.395	1440.575	-516.912	990.182	1389.937	-305.776	730.234	1319.358	-45.636	589.513	1251.151	-99.957	597.071	1293.036	-19.464	713.424	1150.103	0.709	778.367	1057.084	0.144	734.737	1038.551	20.574	863.639	1200.826	-591.986	738.560	1104.927	-565.518	786.866	1140.361	-641.017	932.230	1090.047	-577.512	1011.565	1103.800	-488.302	1008.292	1042.071	-529.961
278	1.38500	1130.304	602.915	-157.989	1052.957	517.433	-165.047	721.688	472.315	-175.793	661.641	537.030	-228.522	687.251	339.655	-146.688	721.073	310.453	-213.121	801.005	456.269	-436.525	761.451	343.981	-425.558	525.991	140.984	-357.746	460.984	133.647	-305.890	636.088	40.804	-390.194	680.895	47.387	-327.590	935.907	491.390	-165.457	1036.328	583.440	-134.084	922.215	568.998	-142.758	694.710	401.851	-446.211	623.110	306.549	-417.218	1058.105	823.553	-147.252	1129.418	736.499	-164.288	1125.347	687.123	-134.351	988.329	753.646	-91.889	1061.804	666.057	-123.655	896.468	681.206	-468.730	881.139	546.222	-434.973	777.998	694.965	-485.136	768.217	561.099	-443.200	918.668	964.023	-164.742	708.794	1029.873	-223.120	889.597	967.300	-436.720	689.568	1044.970	-340.107	842.247	1509.927	-340.950	859.997	1494.737	-131.652	938.601	1444.564	-515.305	989.487	1393.661	-302.921	723.777	1325.156	-47.310	583.496	1258.245	-103.988	590.238	1299.848	-23.191	705.049	1156.444	-1.454	769.222	1063.013	-0.981	725.080	1044.742	18.718	869.173	1204.097	-590.942	745.363	1106.406	-564.687	793.854	1142.358	-640.190	939.316	1096.098	-574.012	1017.086	1112.402	-484.127	1015.521	1050.229	-524.987
